<mxfile host="app.diagrams.net" modified="2020-09-30T07:07:04.600Z" agent="5.0 (Macintosh; Intel Mac OS X 10_14_5) AppleWebKit/537.36 (KHTML, like Gecko) Chrome/85.0.4183.121 Safari/537.36" etag="lWEBMEJp1ZPzseGn7pUA" version="13.7.6" type="github">
  <diagram id="R2lEEEUBdFMjLlhIrx00" name="Page-1">
    <mxGraphModel dx="1426" dy="825" grid="1" gridSize="10" guides="1" tooltips="1" connect="1" arrows="1" fold="1" page="1" pageScale="1" pageWidth="850" pageHeight="1100" math="0" shadow="0" extFonts="Permanent Marker^https://fonts.googleapis.com/css?family=Permanent+Marker">
      <root>
        <mxCell id="0" />
        <mxCell id="1" parent="0" />
        <mxCell id="MYoXy8F3OLypVtrj_-tT-12" value="" style="rounded=0;whiteSpace=wrap;html=1;align=left;" vertex="1" parent="1">
          <mxGeometry x="50" y="200" width="650" height="370" as="geometry" />
        </mxCell>
        <mxCell id="MYoXy8F3OLypVtrj_-tT-7" style="rounded=0;orthogonalLoop=1;jettySize=auto;html=1;exitX=0;exitY=0.5;exitDx=0;exitDy=0;entryX=1;entryY=0.5;entryDx=0;entryDy=0;endArrow=none;endFill=0;" edge="1" parent="1" source="MYoXy8F3OLypVtrj_-tT-1" target="MYoXy8F3OLypVtrj_-tT-4">
          <mxGeometry relative="1" as="geometry" />
        </mxCell>
        <mxCell id="MYoXy8F3OLypVtrj_-tT-10" style="edgeStyle=none;rounded=0;orthogonalLoop=1;jettySize=auto;html=1;exitX=0.5;exitY=0;exitDx=0;exitDy=0;entryX=0.5;entryY=1;entryDx=0;entryDy=0;endArrow=none;endFill=0;" edge="1" parent="1" source="MYoXy8F3OLypVtrj_-tT-1" target="MYoXy8F3OLypVtrj_-tT-3">
          <mxGeometry relative="1" as="geometry" />
        </mxCell>
        <mxCell id="MYoXy8F3OLypVtrj_-tT-11" style="edgeStyle=none;rounded=0;orthogonalLoop=1;jettySize=auto;html=1;exitX=1;exitY=0.5;exitDx=0;exitDy=0;entryX=0;entryY=0.5;entryDx=0;entryDy=0;endArrow=none;endFill=0;" edge="1" parent="1" source="MYoXy8F3OLypVtrj_-tT-1" target="MYoXy8F3OLypVtrj_-tT-5">
          <mxGeometry relative="1" as="geometry" />
        </mxCell>
        <mxCell id="MYoXy8F3OLypVtrj_-tT-1" value="埋点处理配置" style="rounded=0;whiteSpace=wrap;html=1;" vertex="1" parent="1">
          <mxGeometry x="160" y="420" width="120" height="60" as="geometry" />
        </mxCell>
        <mxCell id="MYoXy8F3OLypVtrj_-tT-2" value="id" style="ellipse;whiteSpace=wrap;html=1;" vertex="1" parent="1">
          <mxGeometry x="70" y="380" width="55" height="30" as="geometry" />
        </mxCell>
        <mxCell id="MYoXy8F3OLypVtrj_-tT-3" value="埋点相关字段：&lt;br&gt;1.埋点id&lt;br&gt;2.appType&lt;br&gt;3.eventId&lt;br&gt;4.pageId&lt;br&gt;5.elementId&lt;br&gt;6.projectId&lt;br&gt;7.page&lt;br&gt;8.arg1&lt;br&gt;9.project_id" style="ellipse;whiteSpace=wrap;html=1;align=left;spacingTop=0;spacing=64;" vertex="1" parent="1">
          <mxGeometry x="150" y="220" width="210" height="170" as="geometry" />
        </mxCell>
        <mxCell id="MYoXy8F3OLypVtrj_-tT-4" value="toTopics" style="ellipse;whiteSpace=wrap;html=1;" vertex="1" parent="1">
          <mxGeometry x="70" y="435" width="55" height="30" as="geometry" />
        </mxCell>
        <mxCell id="MYoXy8F3OLypVtrj_-tT-5" value="源数据处理filters，采用mysql json类型存储&lt;br&gt;&quot;sourceFilters&quot;:[&lt;br&gt;&amp;nbsp; &amp;nbsp; {&lt;br&gt;&amp;nbsp; &amp;nbsp; &amp;nbsp; &amp;nbsp; &quot;type&quot;:&quot;filter type&quot;,&lt;br&gt;&amp;nbsp; &amp;nbsp; &amp;nbsp; &amp;nbsp; &quot;params&quot;:{&lt;br&gt;&amp;nbsp; &amp;nbsp; &amp;nbsp; &amp;nbsp; &amp;nbsp; &amp;nbsp; &quot;field&quot;:&quot;value&quot;&lt;br&gt;&amp;nbsp; &amp;nbsp; &amp;nbsp; &amp;nbsp; }&lt;br&gt;&amp;nbsp; &amp;nbsp; }&lt;br&gt;&amp;nbsp; &amp;nbsp; {&lt;br&gt;&amp;nbsp; &amp;nbsp; ........&lt;br&gt;&amp;nbsp; &amp;nbsp; }&lt;br&gt;]" style="ellipse;whiteSpace=wrap;html=1;align=left;spacingTop=0;spacing=64;" vertex="1" parent="1">
          <mxGeometry x="380" y="300" width="280" height="240" as="geometry" />
        </mxCell>
        <mxCell id="MYoXy8F3OLypVtrj_-tT-6" value="" style="endArrow=none;html=1;entryX=1;entryY=0.5;entryDx=0;entryDy=0;exitX=0;exitY=0;exitDx=0;exitDy=0;" edge="1" parent="1" source="MYoXy8F3OLypVtrj_-tT-1" target="MYoXy8F3OLypVtrj_-tT-2">
          <mxGeometry width="50" height="50" relative="1" as="geometry">
            <mxPoint x="590" y="560" as="sourcePoint" />
            <mxPoint x="640" y="510" as="targetPoint" />
          </mxGeometry>
        </mxCell>
        <mxCell id="MYoXy8F3OLypVtrj_-tT-9" style="edgeStyle=none;rounded=0;orthogonalLoop=1;jettySize=auto;html=1;exitX=1;exitY=0.5;exitDx=0;exitDy=0;entryX=0;entryY=1;entryDx=0;entryDy=0;endArrow=none;endFill=0;" edge="1" parent="1" source="MYoXy8F3OLypVtrj_-tT-8" target="MYoXy8F3OLypVtrj_-tT-1">
          <mxGeometry relative="1" as="geometry" />
        </mxCell>
        <mxCell id="MYoXy8F3OLypVtrj_-tT-8" value="resultType" style="ellipse;whiteSpace=wrap;html=1;" vertex="1" parent="1">
          <mxGeometry x="70" y="490" width="55" height="30" as="geometry" />
        </mxCell>
      </root>
    </mxGraphModel>
  </diagram>
</mxfile>
